<svg xmlns="http://www.w3.org/2000/svg" xmlns:xlink="http://www.w3.org/1999/xlink" width="300" zoomAndPan="magnify" viewBox="0 0 224.87999 74.999997" height="100" preserveAspectRatio="xMidYMid meet" version="1.0"><defs><g/></defs><g fill="#2b2b2b" fill-opacity="1"><g transform="translate(9.03959, 59.059802)"><g><path d="M 12.109375 -17.71875 C 12.109375 -14.09375 13.132812 -11.238281 15.1875 -9.15625 C 17.25 -7.082031 20.03125 -6.046875 23.53125 -6.046875 C 26.988281 -6.046875 29.722656 -7.070312 31.734375 -9.125 C 33.753906 -11.1875 34.765625 -14.050781 34.765625 -17.71875 L 34.765625 -43.21875 L 42.046875 -43.21875 L 42.046875 -17.71875 C 42.046875 -13.976562 41.304688 -10.738281 39.828125 -8 C 38.347656 -5.257812 36.207031 -3.144531 33.40625 -1.65625 C 30.601562 -0.175781 27.3125 0.5625 23.53125 0.5625 C 19.695312 0.5625 16.367188 -0.175781 13.546875 -1.65625 C 10.734375 -3.144531 8.570312 -5.257812 7.0625 -8 C 5.5625 -10.738281 4.8125 -13.976562 4.8125 -17.71875 L 4.8125 -43.21875 L 12.109375 -43.21875 Z M 12.109375 -17.71875 "/></g></g></g><g fill="#2b2b2b" fill-opacity="1"><g transform="translate(55.906571, 59.059802)"><g><path d="M 24.140625 -33.09375 C 27.234375 -33.09375 29.960938 -32.394531 32.328125 -31 C 34.691406 -29.601562 36.53125 -27.625 37.84375 -25.0625 C 39.164062 -22.507812 39.828125 -19.585938 39.828125 -16.296875 C 39.828125 -13.046875 39.175781 -10.164062 37.875 -7.65625 C 36.582031 -5.144531 34.765625 -3.195312 32.421875 -1.8125 C 30.078125 -0.4375 27.359375 0.25 24.265625 0.25 C 21.671875 0.25 19.382812 -0.253906 17.40625 -1.265625 C 15.4375 -2.273438 13.851562 -3.75 12.65625 -5.6875 L 12.65625 11.984375 L 5.5625 11.984375 L 5.5625 -32.84375 L 12.65625 -32.84375 L 12.65625 -27.171875 C 13.851562 -29.109375 15.425781 -30.578125 17.375 -31.578125 C 19.332031 -32.585938 21.585938 -33.09375 24.140625 -33.09375 Z M 22.65625 -5.796875 C 24.59375 -5.796875 26.320312 -6.25 27.84375 -7.15625 C 29.375 -8.0625 30.5625 -9.335938 31.40625 -10.984375 C 32.25 -12.640625 32.671875 -14.492188 32.671875 -16.546875 C 32.671875 -18.566406 32.25 -20.378906 31.40625 -21.984375 C 30.5625 -23.585938 29.375 -24.851562 27.84375 -25.78125 C 26.320312 -26.707031 24.59375 -27.171875 22.65625 -27.171875 C 20.726562 -27.171875 19 -26.71875 17.46875 -25.8125 C 15.945312 -24.90625 14.765625 -23.640625 13.921875 -22.015625 C 13.078125 -20.390625 12.65625 -18.566406 12.65625 -16.546875 C 12.65625 -13.378906 13.59375 -10.796875 15.46875 -8.796875 C 17.34375 -6.796875 19.738281 -5.796875 22.65625 -5.796875 Z M 22.65625 -5.796875 "/></g></g></g><g fill="#2b2b2b" fill-opacity="1"><g transform="translate(97.895434, 59.059802)"><g><path d="M 29.453125 -45.8125 L 36.5625 -45.8125 L 36.5625 0 L 29.453125 0 L 29.453125 -5.625 C 28.253906 -3.6875 26.675781 -2.210938 24.71875 -1.203125 C 22.769531 -0.191406 20.5 0.3125 17.90625 0.3125 C 14.78125 0.3125 12.03125 -0.394531 9.65625 -1.8125 C 7.289062 -3.238281 5.445312 -5.226562 4.125 -7.78125 C 2.8125 -10.332031 2.15625 -13.253906 2.15625 -16.546875 C 2.15625 -19.796875 2.8125 -22.675781 4.125 -25.1875 C 5.445312 -27.695312 7.289062 -29.648438 9.65625 -31.046875 C 12.03125 -32.453125 14.738281 -33.15625 17.78125 -33.15625 C 20.414062 -33.15625 22.710938 -32.640625 24.671875 -31.609375 C 26.628906 -30.585938 28.222656 -29.109375 29.453125 -27.171875 Z M 19.390625 -5.625 C 22.347656 -5.625 24.765625 -6.617188 26.640625 -8.609375 C 28.515625 -10.609375 29.453125 -13.171875 29.453125 -16.296875 C 29.453125 -19.472656 28.515625 -22.066406 26.640625 -24.078125 C 24.765625 -26.097656 22.347656 -27.109375 19.390625 -27.109375 C 16.421875 -27.109375 14 -26.097656 12.125 -24.078125 C 10.257812 -22.066406 9.304688 -19.472656 9.265625 -16.296875 C 9.304688 -13.171875 10.257812 -10.609375 12.125 -8.609375 C 14 -6.617188 16.421875 -5.625 19.390625 -5.625 Z M 19.390625 -5.625 "/></g></g></g><g fill="#2b2b2b" fill-opacity="1"><g transform="translate(140.007792, 59.059802)"><g><path d="M 18.765625 -33.09375 C 23.953125 -33.09375 27.832031 -31.628906 30.40625 -28.703125 C 32.976562 -25.785156 34.265625 -21.671875 34.265625 -16.359375 C 34.265625 -15.828125 34.222656 -14.941406 34.140625 -13.703125 L 9.328125 -13.703125 C 9.898438 -11.148438 11.09375 -9.144531 12.90625 -7.6875 C 14.71875 -6.226562 16.921875 -5.5 19.515625 -5.5 C 21.285156 -5.5 22.972656 -5.828125 24.578125 -6.484375 C 26.179688 -7.140625 27.582031 -8.085938 28.78125 -9.328125 L 32.546875 -5.3125 C 30.898438 -3.539062 28.921875 -2.171875 26.609375 -1.203125 C 24.304688 -0.234375 21.753906 0.25 18.953125 0.25 C 15.617188 0.25 12.6875 -0.445312 10.15625 -1.84375 C 7.625 -3.25 5.65625 -5.207031 4.25 -7.71875 C 2.851562 -10.226562 2.15625 -13.109375 2.15625 -16.359375 C 2.15625 -19.609375 2.851562 -22.5 4.25 -25.03125 C 5.65625 -27.570312 7.625 -29.550781 10.15625 -30.96875 C 12.6875 -32.382812 15.554688 -33.09375 18.765625 -33.09375 Z M 27.96875 -18.890625 C 27.84375 -21.523438 26.957031 -23.601562 25.3125 -25.125 C 23.664062 -26.65625 21.503906 -27.421875 18.828125 -27.421875 C 16.234375 -27.421875 14.070312 -26.65625 12.34375 -25.125 C 10.613281 -23.601562 9.566406 -21.523438 9.203125 -18.890625 Z M 27.96875 -18.890625 "/></g></g></g><g fill="#2b2b2b" fill-opacity="1"><g transform="translate(176.315807, 59.059802)"><g><path d="M 12.46875 -16.859375 L 1.671875 -32.84375 L 9.8125 -32.84375 L 17.171875 -21.609375 L 24.640625 -32.84375 L 32.421875 -32.84375 L 21.859375 -16.859375 L 33.15625 0 L 25.015625 0 L 17.171875 -12.046875 L 8.765625 0 L 0.859375 0 Z M 12.46875 -16.859375 "/></g></g></g></svg>